<svg width="18" height="18" viewBox="0 0 18 18" fill="none" xmlns="http://www.w3.org/2000/svg">
<path d="M16.5115 12.5297L16.5114 12.5298L16.5186 12.5412C16.5425 12.5793 16.5793 12.6564 16.5717 12.785C16.564 12.9167 16.5072 13.1435 16.2708 13.4722C14.7155 15.5837 12.2496 16.8248 9.61667 16.8248C9.50155 16.8248 9.38382 16.8176 9.24786 16.8091L9.24786 16.809L9.23665 16.8085C8.45387 16.7772 7.69409 16.6285 6.97259 16.3776L6.97197 16.3773C3.94884 15.3303 1.67546 12.5522 1.44043 9.32298C1.2056 5.88001 3.18948 2.66231 6.40106 1.31118C6.77445 1.15636 7.00903 1.1543 7.14095 1.17824C7.27058 1.20176 7.34254 1.25779 7.37978 1.29503C7.41127 1.32652 7.46341 1.39299 7.48454 1.51397C7.50589 1.63617 7.50303 1.85705 7.34994 2.20845L7.34945 2.20959C6.94633 3.14124 6.75 4.12573 6.74999 5.14148L6.75001 5.14393C6.75898 6.97498 7.47702 8.66553 8.63548 9.95795C9.94591 11.4286 11.8285 12.3846 13.9107 12.4743C14.4774 12.5012 15.0396 12.456 15.5873 12.3588L15.5879 12.3587C15.9839 12.288 16.2097 12.3357 16.3282 12.3852C16.4441 12.4335 16.4928 12.4981 16.5115 12.5297Z" fill="#051724" stroke="black"/>
</svg>
